<svg width="32" height="32" viewBox="0 0 32 32" fill="none" xmlns="http://www.w3.org/2000/svg">
<path fill-rule="evenodd" clip-rule="evenodd" d="M5.17157 2.50491C5.92172 1.75476 6.93913 1.33333 8 1.33333H19.3333C19.687 1.33333 20.0261 1.47381 20.2761 1.72386L27.6095 9.05719C27.8595 9.30724 28 9.64638 28 10V26.6667C28 27.7275 27.5786 28.7449 26.8284 29.4951C26.0783 30.2452 25.0609 30.6667 24 30.6667H8C6.93913 30.6667 5.92172 30.2452 5.17157 29.4951C4.42143 28.7449 4 27.7275 4 26.6667V5.33333C4 4.27247 4.42143 3.25505 5.17157 2.50491ZM8 4C7.64638 4 7.30724 4.14048 7.05719 4.39052C6.80714 4.64057 6.66667 4.97971 6.66667 5.33333V26.6667C6.66667 27.0203 6.80714 27.3594 7.05719 27.6095C7.30724 27.8595 7.64638 28 8 28H24C24.3536 28 24.6928 27.8595 24.9428 27.6095C25.1929 27.3594 25.3333 27.0203 25.3333 26.6667V10.5523L18.781 4H8Z" fill="#222222"/>
<path fill-rule="evenodd" clip-rule="evenodd" d="M18.6667 1.33333C19.4031 1.33333 20 1.93029 20 2.66667V9.33333H26.6667C27.4031 9.33333 28 9.93029 28 10.6667C28 11.403 27.4031 12 26.6667 12H18.6667C17.9303 12 17.3334 11.403 17.3334 10.6667V2.66667C17.3334 1.93029 17.9303 1.33333 18.6667 1.33333Z" fill="#222222"/>
<path fill-rule="evenodd" clip-rule="evenodd" d="M9.33337 17.3333C9.33337 16.597 9.93033 16 10.6667 16H13.3334C14.0698 16 14.6667 16.597 14.6667 17.3333C14.6667 18.0697 14.0698 18.6667 13.3334 18.6667H10.6667C9.93033 18.6667 9.33337 18.0697 9.33337 17.3333Z" fill="#222222"/>
<path fill-rule="evenodd" clip-rule="evenodd" d="M9.33337 22.6667C9.33337 21.9303 9.93033 21.3333 10.6667 21.3333H13.3334C14.0698 21.3333 14.6667 21.9303 14.6667 22.6667C14.6667 23.403 14.0698 24 13.3334 24H10.6667C9.93033 24 9.33337 23.403 9.33337 22.6667Z" fill="#222222"/>
<path fill-rule="evenodd" clip-rule="evenodd" d="M17.3334 17.3333C17.3334 16.597 17.9303 16 18.6667 16H21.3334C22.0698 16 22.6667 16.597 22.6667 17.3333C22.6667 18.0697 22.0698 18.6667 21.3334 18.6667H18.6667C17.9303 18.6667 17.3334 18.0697 17.3334 17.3333Z" fill="#222222"/>
<path fill-rule="evenodd" clip-rule="evenodd" d="M17.3334 22.6667C17.3334 21.9303 17.9303 21.3333 18.6667 21.3333H21.3334C22.0698 21.3333 22.6667 21.9303 22.6667 22.6667C22.6667 23.403 22.0698 24 21.3334 24H18.6667C17.9303 24 17.3334 23.403 17.3334 22.6667Z" fill="#222222"/>
</svg>
