<svg width="34" height="20" viewBox="0 0 34 20" fill="none" xmlns="http://www.w3.org/2000/svg">
<path d="M33.9054 17.4774L33.8606 14.6794C33.8427 13.5536 32.5099 13.1719 32.5099 13.1719L32.509 13.168C31.2219 12.6646 30.2985 11.4259 30.2749 9.95819C30.2521 8.48891 31.1367 7.21928 32.4093 6.67654C32.4214 6.67122 32.4268 6.66563 32.4396 6.66029C33.6178 6.10276 33.7018 5.07211 33.703 4.79252L33.658 1.98115C33.6383 0.753293 32.4117 0.669311 32.0921 0.668771L1.86734 1.15129C0.189217 1.17712 0.238807 2.53873 0.238807 2.53873L0.291014 5.79445C0.291014 5.79445 0.273418 6.62915 1.37376 7.0735C1.40857 7.08779 1.43199 7.1019 1.46052 7.11631C2.83943 7.57096 3.84949 8.847 3.87427 10.3799C3.89698 11.8405 3.02523 13.1048 1.76447 13.6536L1.76567 13.6548C1.76567 13.6548 0.423045 14.0837 0.441539 15.2225L0.48688 18.0743C0.49206 18.2752 0.593708 19.6932 2.45593 19.6645L32.486 19.1862C32.9764 19.1401 33.9277 18.8753 33.9054 17.4774ZM8.61017 12.0912L8.35304 12.0946C8.06375 12.0994 8.00368 11.8594 7.99287 11.7171L7.93989 8.37419L7.10104 8.38808C6.67593 8.39532 6.70602 7.99389 6.70602 7.99389L6.7044 7.88201C6.7044 7.88201 6.68394 7.59535 7.14243 7.58868L9.69198 7.54798C9.69198 7.54798 10.1147 7.51919 10.1216 7.90229L10.1232 7.98943C10.1195 8.28517 9.89345 8.33713 9.76519 8.34454L8.89926 8.35931L8.94994 11.5734C8.9567 11.9719 8.75231 12.0694 8.61017 12.0912ZM11.4443 12.0457L11.2359 12.0491C10.9112 12.0545 10.8782 11.6554 10.874 11.5542L10.8184 8.02367C10.8184 8.02367 10.8166 7.53053 11.2139 7.52496L11.3619 7.5227C11.3619 7.5227 11.77 7.52989 11.7789 8.11243L11.8344 11.5774C11.8401 11.9609 11.5811 12.0335 11.4443 12.0457ZM15.8377 11.8691C15.5231 11.9784 15.1879 12.0468 14.8134 12.0535C14.1551 12.0642 13.6491 11.8722 13.2945 11.4785C12.9384 11.0856 12.755 10.5152 12.7427 9.76821C12.7358 9.29793 12.8136 8.88543 12.9804 8.52787C13.146 8.17151 13.3868 7.89703 13.7053 7.70284C14.0238 7.50864 14.397 7.40888 14.8284 7.40152C15.173 7.39612 15.5223 7.47544 15.8717 7.60188C15.9656 7.66694 16.1162 7.80991 16.0273 8.04435L15.9924 8.13568C15.8402 8.53657 15.4092 8.30361 15.4092 8.30361L15.4085 8.3052C15.3879 8.2985 15.3669 8.28906 15.3464 8.28157C15.1753 8.22379 15.0068 8.19697 14.8408 8.20035C14.4804 8.20525 14.2026 8.3461 14.0088 8.62051C13.8155 8.89452 13.7229 9.27352 13.7305 9.75831C13.747 10.7663 14.1337 11.2659 14.8909 11.2535C15.1103 11.2507 15.3763 11.1926 15.6603 11.1117L15.666 11.1218C15.666 11.1218 16.0406 11.0149 16.0453 11.2748L16.0474 11.4365C16.0623 11.6985 15.9344 11.8143 15.8377 11.8691ZM20.3098 11.9041L19.8513 11.9116C19.5663 11.9159 19.3902 11.6411 19.3902 11.6411L18.3521 10.0287L17.9523 10.3264L17.9695 11.4185C17.9762 11.8098 17.7834 11.9209 17.6359 11.9483L17.3999 11.9505C17.0651 11.9569 17.0167 11.6225 17.011 11.4836L16.9543 7.93032C16.9543 7.93032 16.9438 7.43263 17.3026 7.42775L17.5236 7.42417C17.6513 7.43327 17.9067 7.50525 17.9137 7.94018L17.9384 9.48836L18.3072 8.94929L19.3509 7.59553C19.3509 7.59553 19.5059 7.39249 19.7779 7.38799L20.1371 7.38193C20.1371 7.38193 20.5747 7.37211 20.3012 7.72923L20.3008 7.7312L19.0264 9.40245L20.4368 11.563C20.508 11.6827 20.5964 11.899 20.3098 11.9041ZM23.5044 11.9033L21.7702 11.9313C21.3188 11.9386 21.2726 11.557 21.2686 11.4389L21.2117 7.92491C21.2117 7.92491 21.2767 7.41368 21.7348 7.40585L23.4298 7.37932C23.4298 7.37932 23.8086 7.35131 23.8132 7.64808L23.816 7.78349C23.816 7.78349 23.8636 8.1588 23.4424 8.16519L22.5191 8.17942C22.165 8.18578 22.1806 8.52789 22.1806 8.52789L22.1863 8.80029C22.1863 8.80029 22.1844 9.17884 22.6049 9.17168L23.3479 9.15951C23.3479 9.15951 23.7231 9.14727 23.7282 9.43146L23.7298 9.54255C23.7215 9.86782 23.5216 9.93345 23.4068 9.94454L22.692 9.9562C22.2449 9.96306 22.2113 10.2554 22.2111 10.3371L22.2188 10.8281C22.2372 10.9594 22.3102 11.1292 22.5665 11.125L23.4788 11.1102C23.4788 11.1102 23.8687 11.0883 23.8731 11.334L23.8759 11.4894C23.8764 11.8255 23.6381 11.8919 23.5044 11.9033ZM26.0413 11.8134L25.8917 11.8149C25.5934 11.8194 25.5586 11.4804 25.5549 11.3627L25.5092 8.51128C25.503 8.14191 25.229 8.10207 25.1221 8.10006L24.6067 8.10893C24.2476 8.11499 24.2677 7.75182 24.2677 7.75182L24.2661 7.61442C24.2661 7.61442 24.2599 7.31533 24.6191 7.30927L27.2581 7.26775C27.4098 7.27288 27.6784 7.32145 27.683 7.5974L27.6838 7.68377C27.6812 7.99755 27.4521 8.05585 27.3345 8.06503L26.8038 8.07299C26.7308 8.07588 26.4625 8.11564 26.4687 8.54509L26.5132 11.349C26.5063 11.5137 26.437 11.8102 26.0413 11.8134Z" fill="#5FD855"/>
</svg>
