<svg width="25" height="25" viewBox="0 0 25 25" fill="none" xmlns="http://www.w3.org/2000/svg">
<path d="M4.16667 19.4444C4.16667 16.6667 9.72222 15.1389 12.5 15.1389C15.2778 15.1389 20.8333 16.6667 20.8333 19.4444V20.8333H4.16667V19.4444ZM16.6667 8.33333C16.6667 9.4384 16.2277 10.4982 15.4463 11.2796C14.6649 12.061 13.6051 12.5 12.5 12.5C11.3949 12.5 10.3351 12.061 9.55372 11.2796C8.77232 10.4982 8.33333 9.4384 8.33333 8.33333C8.33333 7.22827 8.77232 6.16846 9.55372 5.38705C10.3351 4.60565 11.3949 4.16667 12.5 4.16667C13.6051 4.16667 14.6649 4.60565 15.4463 5.38705C16.2277 6.16846 16.6667 7.22827 16.6667 8.33333ZM0 2.77778V22.2222C0 22.9589 0.292658 23.6655 0.813592 24.1864C1.33453 24.7073 2.04107 25 2.77778 25H22.2222C22.9589 25 23.6655 24.7073 24.1864 24.1864C24.7073 23.6655 25 22.9589 25 22.2222V2.77778C25 2.04107 24.7073 1.33453 24.1864 0.813592C23.6655 0.292658 22.9589 0 22.2222 0H2.77778C1.23611 0 0 1.25 0 2.77778Z" fill="black"/>
</svg>
