<svg width="8" height="8" viewBox="0 0 8 8" fill="none" xmlns="http://www.w3.org/2000/svg">
<path d="M2.08716 5.70673C2.08716 5.15138 3.19784 4.84595 3.75319 4.84595C4.30853 4.84595 5.41921 5.15138 5.41921 5.70673V5.9844H2.08716V5.70673ZM4.5862 3.48536C4.5862 3.70629 4.49843 3.91817 4.34221 4.07439C4.18599 4.23061 3.97411 4.31837 3.75319 4.31837C3.53226 4.31837 3.32038 4.23061 3.16416 4.07439C3.00794 3.91817 2.92017 3.70629 2.92017 3.48536C2.92017 3.26443 3.00794 3.05255 3.16416 2.89633C3.32038 2.74011 3.53226 2.65235 3.75319 2.65235C3.97411 2.65235 4.18599 2.74011 4.34221 2.89633C4.49843 3.05255 4.5862 3.26443 4.5862 3.48536ZM1.25415 2.37468V6.26207C1.25415 6.40935 1.31266 6.55061 1.41681 6.65475C1.52095 6.7589 1.66221 6.81741 1.80949 6.81741H5.69688C5.84417 6.81741 5.98542 6.7589 6.08957 6.65475C6.19371 6.55061 6.25222 6.40935 6.25222 6.26207V2.37468C6.25222 2.22739 6.19371 2.08614 6.08957 1.98199C5.98542 1.87784 5.84417 1.81934 5.69688 1.81934H1.80949C1.50128 1.81934 1.25415 2.06924 1.25415 2.37468Z" fill="black"/>
</svg>
